<svg xmlns="http://www.w3.org/2000/svg" viewBox="0 0 430.7 748.34"><defs><style>.e5d51592-20c8-446f-a99b-0d0306704613{fill:#ef52a4;}</style></defs><title>Asset 6</title><g id="b3a5fd77-5871-4df2-9af9-55ff7cef7738" data-name="Layer 2"><g id="f6e1d5b6-2447-4c7a-967e-5bb182f7f72f" data-name="Wireframe"><circle class="e5d51592-20c8-446f-a99b-0d0306704613" cx="317.35" cy="113.35" r="113.35"/><path d="M294,735.93V667c-25.88,45.54-70.39,81.36-115.84,81.36-49.38,1-96.43-26.3-128-66.92-55.71-71.65-62.87-184.52-32.07-268C39.71,354.77,89,315.11,152.27,314c27.64-.51,55.42,5.69,80.73,16.76,20.32,8.88,42.85,24,61,40.95V70.61l60.68,10.23V746.16ZM238.1,361.64c-28.66-13.31-68.67-9.88-96.3,4.69-47.73,25.14-63,83.74-66.68,133.56-3.92,52.42,2.11,107.48,20.16,157,7.29,20,18.74,51.18,42.94,55.9,23.34,4.56,49-8.86,66.83-22.37,43.6-33,87.27-79.51,89-142V454.91C293,398.68,268.54,375.75,238.1,361.64Z"/></g></g></svg>