<svg xmlns="http://www.w3.org/2000/svg" viewBox="0 0 391.54 571.74"><defs><style>.bfcf22ec-621e-4c80-8a93-988ccbfa2086{fill:none;stroke:#ff4431;stroke-miterlimit:10;stroke-width:5px;}.ffa4fa54-3efc-4e5a-9cb5-30e89cfccc94{fill:#ff4431;}</style></defs><title>Asset 8</title><g id="b76d4301-e604-4e6a-87f4-ac64731cd1e5" data-name="Layer 2"><g id="a772e07d-b7a9-4d63-a8cd-18e9f5375b1b" data-name="Wireframe"><line class="bfcf22ec-621e-4c80-8a93-988ccbfa2086" x1="291.31" y1="87.06" x2="139.6" y2="484.68"/><circle class="ffa4fa54-3efc-4e5a-9cb5-30e89cfccc94" cx="291.31" cy="87.06" r="87.06"/><circle class="ffa4fa54-3efc-4e5a-9cb5-30e89cfccc94" cx="139.6" cy="484.68" r="87.06"/><path d="M282.63,484.68c-73.25,57.51-173.73,23.09-226.9-45.27-61.9-79.68-69.86-205-35.62-297.85,24-65.1,78.73-109.14,149.1-110.46,30.75-.53,61.56,6.36,89.67,18.66,36,15.76,78.27,49,97.11,80.45C429.15,239.49,381.84,406.82,282.63,484.68Zm53.5-264C335.94,170.08,314,107,264.58,84.05c-31.84-14.76-76.29-11-107,5.2-53.06,28-70,93.12-74.12,148.47C79.1,296,85.81,357.11,105.88,412.12c8.09,22.2,20.82,56.87,47.66,62.13,26,5.06,54.45-9.81,74.27-24.86C294.92,398.61,336.4,303.77,336.1,220.63Z"/></g></g></svg>