<svg xmlns="http://www.w3.org/2000/svg" viewBox="0 0 372.56 519.1"><defs><style>.fd86769b-70c3-49ca-a061-10b34b328f51{fill:#9c3;}</style></defs><title>Asset 12</title><g id="a06a119d-7ac6-46c9-8aa8-824419e410f1" data-name="Layer 2"><g id="b4af0363-51bc-44a8-9baf-3ca683bd9fc1" data-name="Wireframe"><circle class="fd86769b-70c3-49ca-a061-10b34b328f51" cx="237.23" cy="336.74" r="121.94"/><path d="M361.48,519.1,320.41,490c19.08-32.36,26.1-57,16.12-70.94-10.63-14.78-28.38-18.51-45.49-23.14a101.37,101.37,0,0,1-21.27,26.29c-66.71,56.65-167.44,25.15-217.39-39.14-58.17-74.84-65.66-195.21-33.49-282.4C41.46,39.49,100.28,0,169.34,0c85,0,138.17,53.54,157.58,101,24,54.35,16.78,140.75-2.23,185.37l-35.53-38.84c7.53-18.07,14.14-56.3,14.14-89.35,0-56.21-18.26-103.29-74.57-119.92-36.29-10.71-83.66-4.88-115.19,14.71C59,86.81,49.16,153.43,49.16,207.25c0,57.87,14,117.21,42.12,169,11.31,20.87,33.18,50,63,51.9C183,430,213.53,413.34,233,395.71c3.09-2.82,8.78-8.51,11.44-11.64-39.37-9.73-88.78-22.62-88.78-73,0-61.37,69.15-79.62,113.53-46.08,21.63,16.34,33.12,43.81,34.54,72.17.09,1.67.16,4.38.16,6.05,0,11-3,28.42-6.65,38.82C352.32,399.75,393.15,432.12,361.48,519.1ZM247.91,271.92c-64-7.6-87,78.38-4.75,97.18,3.64.83,7.05,1.69,10.8,2.23C283.62,326.24,282.62,276.05,247.91,271.92Z"/></g></g></svg>