<svg xmlns="http://www.w3.org/2000/svg" viewBox="0 0 225.1 289.61"><defs><style>.ad84a7d9-a1c7-479f-a0d4-fa6d3c0485b5{fill:none;stroke:#9c3;stroke-miterlimit:10;stroke-width:4px;}</style></defs><title>Asset 11</title><g id="ba4d6fa3-75b3-4bc2-821f-8e8dc4cfc767" data-name="Layer 2"><g id="b4ae8eec-bb91-4e46-81d6-5ba9883adc07" data-name="Wireframe"><circle class="ad84a7d9-a1c7-479f-a0d4-fa6d3c0485b5" cx="132.02" cy="133.19" r="91.08"/><path d="M191.86,111.14a99,99,0,0,0-13.78-24.47,95.38,95.38,0,0,0-20.37-19.81q-11.58-8.3-23.47-9.38a53.56,53.56,0,0,0-20.52,2,50.88,50.88,0,0,0-30.39,25,54.6,54.6,0,0,0-6.09,21.23q-1.71,19.09,6.89,40.56t30.38,41.59a65.75,65.75,0,0,1-12.52,2,87.18,87.18,0,0,1-12.69-.23,74.85,74.85,0,0,1-27.62-7.76A66.64,66.64,0,0,1,40.5,165.06a70,70,0,0,1-13.06-24.41q-4.38-14-2.84-30.94a118.51,118.51,0,0,1,22.11-60.1A94.5,94.5,0,0,1,64.55,30.88,88.77,88.77,0,0,1,80.4,20.76L60.4,0A73.11,73.11,0,0,0,42.84,9.87a102.93,102.93,0,0,0-19.32,19A110.25,110.25,0,0,0,8.26,55.23,113.23,113.23,0,0,0,.35,88.64a86.36,86.36,0,0,0,7.81,44.28A137.29,137.29,0,0,0,34.29,171.4a153.55,153.55,0,0,0,36.16,27.95q19.88,11,37.89,12.67a73.91,73.91,0,0,0,22.27-1.27,80.82,80.82,0,0,1,5.78,14.5,39.33,39.33,0,0,1,1.41,14.47,28.44,28.44,0,0,1-3.63,12.2,34,34,0,0,1-7.31,8.6,35.46,35.46,0,0,1-9.42,5.69c-2.2.91-4.43,1.7-6.67,2.4l19.42,21a45.57,45.57,0,0,0,19-9.28q10-8.19,11.23-21.87a46.5,46.5,0,0,0-5.56-27,128.87,128.87,0,0,0-15.74-22.85q22.46-7.41,38.35-26.68t18.42-47.37Q196.87,124.14,191.86,111.14Zm-16.55,2.33q-2.4,26.66-16.6,45.34t-35.23,26.25a67.73,67.73,0,0,1-17.43-26.26,74.1,74.1,0,0,1-4.43-33.45,62.5,62.5,0,0,1,4.6-18.83,48,48,0,0,1,9.89-15.08A41.8,41.8,0,0,1,131,81.7a42.25,42.25,0,0,1,19.47-2.42,25.83,25.83,0,0,1,18.84,10.58Q176.58,99.43,175.31,113.47Z"/></g></g></svg>