<svg xmlns="http://www.w3.org/2000/svg" viewBox="0 0 199.02 259.93"><defs><style>.a25fa632-143b-42db-bb11-76bb715910a3{fill:none;stroke:#ff4431;stroke-miterlimit:10;stroke-width:5px;}</style></defs><title>Asset 7</title><g id="b9f86f10-e674-4e37-838b-a5e86ab97065" data-name="Layer 2"><g id="a7049374-b0f3-46b3-9e7f-9dd101723f88" data-name="Wireframe"><circle class="a25fa632-143b-42db-bb11-76bb715910a3" cx="76.44" cy="39.79" r="37.29"/><circle class="a25fa632-143b-42db-bb11-76bb715910a3" cx="120.59" cy="220.15" r="37.29"/><line class="a25fa632-143b-42db-bb11-76bb715910a3" x1="85.31" y1="76" x2="111.73" y2="183.93"/><path d="M199,127.88c0,59.81-41.14,102.87-100.94,102.87C43.06,230.75,0,192,0,132.19,0,71.91,45.45,28.85,101.9,28.85,155.49,28.85,199,69,199,127.88ZM96.16,43.2c-31.57,0-55,30.14-55,82.77,0,43.54,19.62,90.42,61.72,90.42s55-44,55-80.85C157.88,94.87,141.61,43.2,96.16,43.2Z"/></g></g></svg>