<svg xmlns="http://www.w3.org/2000/svg" viewBox="0 0 314.93 295"><defs><style>.b56e77e7-8035-4cba-b2e9-667112abb568{fill:none;stroke:#ef52a4;stroke-miterlimit:10;stroke-width:5px;}</style></defs><title>Asset 5</title><g id="a9017cc7-3cd1-4d3b-95ab-05d13db7a9a3" data-name="Layer 2"><g id="e1869edf-2e09-428a-8ac4-fd3c6727355b" data-name="Wireframe"><circle class="b56e77e7-8035-4cba-b2e9-667112abb568" cx="253.39" cy="256.36" r="36.14"/><circle class="b56e77e7-8035-4cba-b2e9-667112abb568" cx="42.1" cy="38.64" r="36.14"/><path d="M32.43,27.26v-2C54.22,10.67,75,2.5,92.84,2.5c22,0,40.36,9.9,55.22,28.22C159.2,44.84,164.89,60.44,164.89,78c0,14.61-4.7,25.75-13.37,35.16a92.39,92.39,0,0,1,16.84,14.36c6.19,6.44,16.09,9.66,30.2,9.66,14.86,0,29-4,41.1-12.63V33.45H192.13l-11.89-24,2-2.72H303l11.89,24-2,2.73H268.13l1,226.79L266.65,263l-27.48-7.43.24-91.85a74.39,74.39,0,0,1-21.54,2.72c-13.86,0-26.73-4-37.13-11.88l-.5.49c2.73,7.43,3,15.35,3,24.27,0,34.41-27.48,58.18-62.14,58.18-53.48,0-90.62-44.07-121.07-105v-1.73l14.86-9.16C42.83,176.3,74.28,205,108.44,205,133,205,158,186.46,158,161.7c0-21-12.87-34.91-35.65-34.91-11.64,0-27,4.45-45.81,12.62L57.44,109.7l.5-1.73c24-9.9,45.3-15.84,62.63-15.84C133,83.46,140.63,72.57,140.63,59.2c0-14.61-12.38-26-29.22-26S74.28,41.37,51.75,56Z"/></g></g></svg>