<svg xmlns="http://www.w3.org/2000/svg" viewBox="0 0 349.97 223.31"><defs><style>.b286897f-421e-49bf-a6f1-38b31f51587a{fill:none;stroke:#39f;stroke-miterlimit:10;stroke-width:5px;}</style></defs><title>Asset 9</title><g id="b9098d6b-116f-4ae4-9ce3-61d225e65ac4" data-name="Layer 2"><g id="ad975801-0a45-40d5-b106-677e5128f4e6" data-name="Wireframe"><circle class="b286897f-421e-49bf-a6f1-38b31f51587a" cx="80.43" cy="50.01" r="47.51"/><path d="M283.3,99.8c0-32.3-14.25-48.93-44.18-48.93-18.05,0-32.78,8.08-39.43,16.63-5.7,7.12-7.13,11.87-7.13,28.5v72.68c0,34.2.95,38.95,18.06,41.33l10,1.43c3.33,2.37,2.38,10.45-1,11.87-14.25-.95-28-1.42-44.65-1.42-17.11,0-29.93.47-43.23,1.42-3.33-1.42-4.28-9.5-.95-11.87l8.55-1.43c17.57-2.85,18-7.13,18-41.33V99.8c0-31.83-14.25-48.93-43.7-48.93-19.48,0-32.78,8.55-39.91,17.1-4.75,5.7-7.12,11.88-7.12,27.08v73.63c0,34.2.95,38.48,18,41.33l8.55,1.43c3.32,2.37,2.37,10.45-1,11.87-12.83-.95-26.6-1.42-43.23-1.42-17.1,0-31.35.47-46.08,1.42-3.33-1.42-4.28-9.5-1-11.87L13.47,210c17.58-2.38,18-7.13,18-41.33V85.55c0-18.53,0-20.91-12.82-29.46l-4.28-2.85c-1.9-1.9-1.9-7.12.48-8.55,10.92-3.8,38-16.15,47.5-23.27a5.55,5.55,0,0,1,5.23,3.32c-.95,10.93-.95,18.05-.95,22.33a5,5,0,0,0,5.22,5.22c18-12.82,40.38-24.22,63.18-24.22,23.75,0,37.06,8.55,50.36,28,4.27,1,7.6-.94,11.87-3.8,19-13.3,42.28-24.22,64.61-24.22,38,0,56.53,26.12,56.53,58.9v81.71c0,34.2.95,38.95,18.05,41.33l11.4,1.43c3.33,2.37,2.38,10.45-.95,11.87-15.67-.95-29.45-1.42-46.08-1.42-17.1,0-29.92.47-43.23,1.42-3.32-1.42-4.27-9.5-.94-11.87l8.55-1.43c17.57-2.85,18.05-7.13,18.05-41.33Z"/></g></g></svg>