<svg xmlns="http://www.w3.org/2000/svg" viewBox="0 0 366.87 415.73"><defs><style>.aad7d0b5-380d-4fbe-aca1-09869b2940f0{fill:#39f;}</style></defs><title>Asset 13</title><g id="ac5672fc-a399-4845-9bd9-94da2f8b971d" data-name="Layer 2"><g id="f2cba08a-2eb0-422d-9f88-2f2805226cb3" data-name="Wireframe"><circle class="aad7d0b5-380d-4fbe-aca1-09869b2940f0" cx="121.34" cy="121.34" r="121.34"/><path d="M366.87,415.73l-50.72-8.65V194.8c-.12-29.05-1-63.61-22-86.28-10.35-11.06-31-20-46.17-20-1.67,0-4.36.13-6,.29-19.1,1.73-42.52,8.29-63.76,19.55-32,16.93-59,44.43-59,81.93V415.73L68,407.08V52.75l51.24,8.64V119.9c11.71-28.05,40.6-68.9,86.06-69.09,23.34-.43,42.91,4.78,64.28,14.12,27.37,12,56,37.26,70.34,61.14,18.06,27,26.45,58.7,27,91.15Z"/></g></g></svg>