<svg xmlns="http://www.w3.org/2000/svg" viewBox="0 0 538.74 422.56"><defs><style>.ac5d6d13-4c0d-474f-aae6-28d81f8e8742{fill:#39f;}</style></defs><title>Asset 10</title><g id="e85d2903-3f72-4e26-9a6b-e20b45ab4856" data-name="Layer 2"><g id="b09946a0-7cde-416b-a940-00e4e47831df" data-name="Wireframe"><circle class="ac5d6d13-4c0d-474f-aae6-28d81f8e8742" cx="109.85" cy="109.85" r="109.85"/><path d="M538.74,422.56l-50-8.81V197.27c-.09-29.67-.89-64.92-19.47-88-11.79-14.67-28.88-21.94-46.16-20.14-16.9,1.77-37.61,8.45-56.41,19.94-28.25,17.26-48.87,45.31-48.87,83.55v43.87h0V422.56l-45.79-8.81V197.27c-.09-29.67-.94-64.92-19.86-88-12-14.67-29.47-21.94-47.11-20.14-17.24,1.77-38.38,8.45-57.56,19.94-28.84,17.26-51,45.35-51,83.55V422.56l-52.25-8.81V52.4l52.25,8.81v57.08c10.7-28.47,35.61-67.67,75.43-67.87,21.09-.44,38.73,4.88,58,14.4,23,11.37,49,33.9,62.92,56.62,9.95-23.89,52.45-70.78,99.51-71,20.66-.44,37.95,4.88,56.85,14.4,24.2,12.22,52.88,38,65.56,62.35,16,27.56,23.4,59.86,23.89,93Z"/></g></g></svg>