<svg xmlns="http://www.w3.org/2000/svg" viewBox="0 0 354.69 677.74"><title>Asset 1</title><g id="b183ce6b-a231-4839-94fe-4952ad195e1c" data-name="Layer 2"><g id="a2f4beed-cfe9-4b21-993e-a05232035c57" data-name="Wireframe"><path d="M294,665.32v-69c-25.88,45.54-70.39,81.37-115.84,81.37-49.38,1-96.43-26.31-128-66.92-55.71-71.66-62.87-184.52-32.07-268C39.71,284.16,89,244.5,152.27,243.39c27.64-.52,55.42,5.69,80.73,16.75,20.32,8.89,42.85,24,61,41V0l60.68,10.24V675.56ZM238.1,291c-28.66-13.3-68.67-9.88-96.3,4.69-47.73,25.14-63,83.75-66.68,133.57-3.92,52.41,2.11,107.47,20.16,157,7.29,20,18.74,51.18,42.94,55.91,23.34,4.55,49-8.87,66.83-22.38,43.6-33,87.27-79.51,89-142V384.31C293,328.08,268.54,305.15,238.1,291Z"/></g></g></svg>