<svg xmlns="http://www.w3.org/2000/svg" viewBox="0 0 314.93 260.46"><title>Asset 2</title><g id="bbb56eff-3441-4cf5-bfe7-c94e31a95649" data-name="Layer 2"><g id="e7c7a34a-6203-4f87-a844-c288a201386d" data-name="Wireframe"><path d="M32.43,24.76v-2C54.22,8.17,75,0,92.84,0c22,0,40.36,9.9,55.22,28.22,11.14,14.12,16.83,29.72,16.83,47.29,0,14.61-4.7,25.75-13.37,35.16A92.39,92.39,0,0,1,168.36,125c6.19,6.44,16.09,9.66,30.2,9.66,14.86,0,29-4,41.1-12.63V31H192.13l-11.89-24,2-2.72H303l11.89,24L313,31H268.13l1,226.79-2.47,2.72L239.17,253l.24-91.85a74.39,74.39,0,0,1-21.54,2.72c-13.86,0-26.73-4-37.13-11.88l-.5.49c2.73,7.43,3,15.35,3,24.27,0,34.41-27.48,58.18-62.14,58.18C67.59,235,30.45,190.89,0,130v-1.73l14.86-9.16c28,54.71,59.42,83.43,93.58,83.43C133,202.52,158,184,158,159.2c0-21-12.87-34.91-35.65-34.91-11.64,0-27,4.45-45.81,12.62L57.44,107.2l.5-1.73c24-9.9,45.3-15.84,62.63-15.84C133,81,140.63,70.07,140.63,56.7c0-14.61-12.38-26-29.22-26S74.28,38.87,51.75,53.48Z"/></g></g></svg>