<svg xmlns="http://www.w3.org/2000/svg" viewBox="0 0 454.21 173.34"><defs><style>.abe001c6-136d-4a12-988e-29451bfb5be6{fill:none;stroke:#000;stroke-miterlimit:10;}</style></defs><title>Asset 2</title><g id="ac3d22f7-6f09-4291-a212-8f8cc2064719" data-name="Layer 2"><g id="e2d602c0-29df-41a5-8258-69b4ef37ce10" data-name="Layer 1"><path d="M98.07,133.22,101,139H52.69l-10-3.57v-2.18h0V36.39l10.41,1.46v95.37Z"/><path d="M255.53,134.92l-7.47,10.44s-44.12-33.2-52.8-67.54v61.54l-10.06-1.63V36.26l10.06,1.47v23a44.77,44.77,0,0,0,3.89,17.58c-5.52-26.2,37.65-42.7,37.65-42.7l7.36,8.83s-56.2,13.32-38.9,45l0-.06C222.33,115.3,255.53,134.92,255.53,134.92Z"/><path d="M171.63,139H120.39l-10-3.57V40.67l-2.32-4.28h59.17l2.93,5.75-49.77-1.22V94.47c6.39-17.8,24.94-17,46.84-17L163.31,85s-42.92-7.17-42.92,17.77v30.45H168.7Z"/><path d="M330.74,37.86V139l-10-1.47V81.19l-3.27,6.29S274.75,77.77,273.18,101v3.09c0,11.47,0,23.07,0,34.88l-10-1.47V36.39l10,1.47c0,18,0,35.92,0,54.11v2c6.23-17.09,26.47-17,47.56-16.93V36.39Z"/><path class="abe001c6-136d-4a12-988e-29451bfb5be6" d="M375.81,48.34a.3.3,0,0,1,0-.08"/><path d="M404.11,96.13l-.15-.37h0l4.23-8.22c-2.62,0-5.19,0-7.69-.05h0c-16.72-40.63-20.21-48.93-20.21-48.93l-10.56-2.16s.87,1.31,2.68,4.87l.16.33C362,95.12,336,135.19,336,135.19L344.6,139c.09,0,7.11-12.12,14.57-30.55v0l.37-.94.16-.39a1049757965793.5,1049757965793.5,0,0,0,.16-.42l.43-1.09v0c6.36-13,23.67-12.28,34.26-10.4h0l.32.87,0,.09C408.66,132.38,414.21,139,423.24,139l5-9C425.13,130,419.27,131.18,404.11,96.13Zm-12.85-8.65c-12.71.22-22.83,1.83-28,10.35l-.09.15a.56.56,0,0,0-.05.08l0,0,.86-2.38c.08-.22.16-.44.23-.67a227.78,227.78,0,0,0,11.4-47.17c0,.1.09.2.14.29l0,.08c3.53,7.68,8.68,19.82,15.61,38.38l.31.83h-.43Z"/><polygon points="454.21 173.01 381.45 173.01 381.45 163.85 445.05 163.85 445.05 9.16 9.16 9.16 9.16 163.85 76.69 163.85 76.69 173.01 0 173.01 0 0 454.21 0 454.21 173.01"/><path d="M86.71,171.15l-.78,2H83.81l3.51-8.7H90l3.69,8.7H91.43l-.83-2ZM90,169.49c-.82-2-1.22-3-1.43-3.7h0c-.2.64-.67,2-1.33,3.7Z"/><path d="M100.62,164.45h3.92c2.93,0,4.53,1.9,4.53,4.2a4.35,4.35,0,0,1-4.57,4.5h-3.88Zm2.07,7.1h1.53c1.73,0,2.66-1,2.66-2.84a2.4,2.4,0,0,0-2.63-2.66h-1.56Z"/><path d="M119,169.46h-4.87v2h5.42l-.24,1.65H112v-8.7h7.21v1.66h-5.14v1.69H119Z"/><path d="M124.93,173.15l-3.56-8.7h2.29l1.55,4.17c.59,1.58.83,2.42,1,3h0c.14-.5.27-.9,1.08-3.11l1.51-4H131l-3.62,8.7Z"/><path d="M134.27,171.15l-.78,2h-2.13l3.52-8.7h2.65l3.69,8.7H139l-.83-2Zm3.31-1.66c-.82-2-1.22-3-1.43-3.7h0c-.2.64-.67,2-1.33,3.7Z"/><path d="M143.55,173.15v-8.7H146c2.42,3.68,3.49,5.15,4,6.18h0c-.09-.92-.08-2.54-.08-4v-2.21h1.9v8.7h-2.3c-.84-1.31-3.66-5.66-4.18-6.65h0c.08,1.07.08,2.31.08,3.85v2.8Z"/><path d="M157.14,171.15l-.78,2h-2.12l3.51-8.7h2.65l3.69,8.7h-2.23l-.83-2Zm3.31-1.66c-.82-2-1.22-3-1.43-3.7h0c-.2.64-.67,2-1.33,3.7Z"/><path d="M174.78,173.15h-1.5a7.08,7.08,0,0,1-.14-.91,3.36,3.36,0,0,1-2.95,1.1,4.17,4.17,0,0,1-4.39-4.49,4.41,4.41,0,0,1,4.78-4.58c2.78,0,4,1.5,4.22,2.77h-2.08a2.05,2.05,0,0,0-2.14-1.21c-1.8,0-2.6,1.28-2.6,2.92s.83,3,2.62,3c1.49,0,2.18-.77,2.18-1.84v-.15h-2.16v-1.59h4.16Z"/><path d="M180,171.15l-.78,2h-2.13l3.52-8.7h2.65l3.69,8.7h-2.23l-.83-2Zm3.31-1.66c-.82-2-1.22-3-1.43-3.7h0c-.19.64-.66,2-1.32,3.7Z"/><path d="M191.33,169.78v3.37h-2.05v-8.7H194c2,0,3.15,1,3.15,2.48a2,2,0,0,1-1.52,2.06,1.89,1.89,0,0,1,1.29,2v.43a7.09,7.09,0,0,0,.11,1.68H194.9a5.68,5.68,0,0,1-.16-1.81v-.29c0-.9-.33-1.27-1.61-1.27Zm0-1.55h2.2c1,0,1.49-.38,1.49-1.13s-.46-1.09-1.47-1.09h-2.22Z"/><path d="M202.18,164.45v8.7h-2.07v-8.7Z"/><path d="M209.13,169.19v1.64H205v-1.64Z"/><path d="M214,164.45v8.7H212v-8.7Z"/><path d="M217.5,173.15v-8.7H220c2.42,3.68,3.49,5.15,4,6.18h0c-.09-.92-.08-2.54-.08-4v-2.21h1.9v8.7h-2.3c-.84-1.31-3.66-5.66-4.18-6.65h0c.08,1.07.08,2.31.08,3.85v2.8Z"/><path d="M230.58,170.55c.25.77.86,1.27,2.32,1.27s1.77-.43,1.77-1-.4-1-2.26-1.27c-3-.52-3.55-1.49-3.55-2.66,0-1.73,1.66-2.61,3.71-2.61,3,0,3.78,1.53,3.88,2.53h-2.07c-.12-.44-.42-1-1.87-1-1,0-1.55.32-1.55.9s.36.78,2,1.07c3.3.59,3.82,1.59,3.82,2.85,0,1.5-1.18,2.72-4.08,2.72-2.71,0-3.94-1.21-4.2-2.78Z"/><path d="M239.71,164.45h4.48c2,0,3.36,1,3.36,2.73s-1.27,2.83-3.39,2.83h-2.38v3.14h-2.07Zm2.07,4H244c.91,0,1.49-.3,1.49-1.19,0-.72-.44-1.16-1.49-1.16h-2.21Z"/><path d="M252.27,164.45v8.7H250.2v-8.7Z"/><path d="M257.8,169.78v3.37h-2v-8.7h4.71c2,0,3.14,1,3.14,2.48A2,2,0,0,1,262.1,169a1.9,1.9,0,0,1,1.29,2v.43a7.09,7.09,0,0,0,.11,1.68h-2.12a5.4,5.4,0,0,1-.16-1.81v-.29c0-.9-.33-1.27-1.62-1.27Zm0-1.55H260c1.05,0,1.5-.38,1.5-1.13S261,166,260,166H257.8Z"/><path d="M273.53,169.46h-4.87v2h5.42l-.24,1.65h-7.25v-8.7h7.21v1.66h-5.14v1.69h4.87Z"/><path d="M276.85,164.45h3.92c2.93,0,4.53,1.9,4.53,4.2a4.35,4.35,0,0,1-4.57,4.5h-3.88Zm2.07,7.1h1.53c1.73,0,2.66-1,2.66-2.84a2.4,2.4,0,0,0-2.63-2.66h-1.56Z"/><path d="M294.9,166.1h-3.07v-1.65H300v1.65H297v7.05H294.9Z"/><path d="M305.7,173.15V170a.43.43,0,0,0-.11-.28l-3.6-5.3h2.45c.87,1.37,2,3.05,2.38,3.87.44-.81,1.55-2.5,2.41-3.87h2.26l-3.67,5.39a.38.38,0,0,0-.05.22v3.09Z"/><path d="M313.57,164.45h4.48c2,0,3.36,1,3.36,2.73S320.15,170,318,170h-2.37v3.14h-2.08Zm2.08,4h2.21c.91,0,1.49-.3,1.49-1.19,0-.72-.45-1.16-1.49-1.16h-2.21Z"/><path d="M331,169.46h-4.88v2h5.42l-.24,1.65h-7.24v-8.7h7.2v1.66h-5.14v1.69H331Z"/><path d="M334.33,164.45h7.14v1.65H336.4v2h4.72v1.66H336.4v3.37h-2.07Z"/><path d="M345.41,171.15l-.78,2h-2.12l3.51-8.7h2.65l3.7,8.7h-2.24l-.83-2Zm3.31-1.66c-.82-2-1.22-3-1.43-3.7h0c-.2.64-.66,2-1.33,3.7Z"/><path d="M363,170.4c-.41,1.53-1.62,2.94-4.33,2.94a4.31,4.31,0,0,1-4.61-4.53,4.44,4.44,0,0,1,4.72-4.54c2.65,0,4,1.47,4.23,2.93h-2.09a2,2,0,0,0-2.17-1.33c-1.64,0-2.51,1.25-2.51,2.86s.8,3,2.53,3a2,2,0,0,0,2.15-1.34Z"/><path d="M372.62,169.46h-4.88v2h5.42l-.24,1.65h-7.25v-8.7h7.21v1.66h-5.14v1.69h4.88Z"/></g></g></svg>