<svg xmlns="http://www.w3.org/2000/svg" viewBox="0 0 1140.14 434.77"><defs><style>.a97fea8e-d2d1-469e-a72e-81dab034e543{fill:none;stroke:#000;stroke-miterlimit:10;}</style></defs><title>Asset 4</title><g id="e838ea07-4028-42a9-90b8-69e587b2642b" data-name="Layer 2"><g id="aa45218f-f58b-49af-a906-7dc78a5508ae" data-name="Layer 1"><path d="M1075,326.26l-12.61,22.57c-22.66,0-36.59-16.53-71.08-107.54l-.09-.23-8-21.49-.78-2.09c-17.38-46.6-30.31-77.06-39.17-96.35l-.09-.19c-1.66-3.74-5-10.41-8-16.55-.14-.28-.28-.55-.41-.83-4.55-8.94-6.73-12.22-6.73-12.22l26.5,5.42s8.77,20.83,50.75,122.85h0l8.68,20.75.39.93C1052.42,329.28,1067.15,326.26,1075,326.26Z"/><path d="M943.16,120.94c-.12-.24-.23-.49-.34-.73-5.1,42.17-16.28,83.1-28.61,118.41-.2.56-.4,1.11-.59,1.67-4.1,11.43-8.08,21.77-10.29,27.39l-.21.53c-.07.17-.14.34-.2.51l-.39,1c-.53,1.34-.86,2.17-.94,2.36l0,.05C882.84,318.37,865.23,348.8,865,348.8l-21.56-9.47s65.15-100.57,91.74-234.94C938.2,110.53,941.5,117.2,943.16,120.94Z"/><path d="M246.16,334.39l7.36,14.44H132.26l-25.12-9V334.4h0v-243L133.26,95V334.39Z"/><polygon points="490.12 94.7 490.12 349.81 464.88 345.73 464.88 91.01 490.12 94.7"/><path d="M515.23,224.61l-11.66-16.39C473.14,135.74,594.41,89.4,594.41,89.4l18.48,22.15S471.81,145,515.23,224.61Z"/><path d="M490.13,152.43c0,96.84,151.31,186.25,151.31,186.25l-18.78,26.21S510,280.13,489.58,193.14Z"/><path d="M419.77,194.33l-9.85,19s-107.73-18-107.73,44.6V237.14C318.24,192.45,364.79,194.33,419.77,194.33Z"/><polygon points="430.81 348.83 302.19 348.83 277.08 339.87 277.08 102.09 271.25 91.34 419.77 91.34 427.13 105.77 302.19 102.71 302.19 334.39 423.45 334.39 430.81 348.83"/><polygon points="830.21 95.02 830.21 348.83 805.1 345.15 805.1 91.34 830.21 95.02"/><path d="M805.1,193.25v10.54l-8.19,15.8s-107.24-24.38-111.18,33.93V235.76C701.37,192.86,752.17,193.18,805.1,193.25Z"/><path d="M685.73,230.85v30.43c0,28.79-.05,57.91-.11,87.55l-25.12-3.68V91.34L685.62,95C685.66,140.17,685.72,185.19,685.73,230.85Z"/><path class="a97fea8e-d2d1-469e-a72e-81dab034e543" d="M943.33,121.33a1.19,1.19,0,0,1-.08-.2"/><path d="M1024.61,219.74,1014,240.37l-23.6-1.48c-26.57-4.72-70-6.66-86,26.1-1.49-4.42,4.39-14.35,7.13-18.86l.12-.2c.07-.13.15-.25.22-.37,12.94-21.38,38.33-25.43,70.23-26h23.18s0,0,0,0C1011.58,219.67,1018,219.74,1024.61,219.74Z"/><polygon points="1140.14 434.29 997.5 434.29 997.5 411.29 1117.14 411.29 1117.14 23 23 23 23 411.29 142.5 411.29 142.5 434.29 0 434.29 0 0 1140.14 0 1140.14 434.29"/><path d="M168.51,429.17l-2,5.12h-5.62L170,411.75h7l9.54,22.54h-5.92l-2.09-5.12Zm8.5-4.38c-2.1-5.17-3.12-7.8-3.66-9.52h0c-.51,1.68-1.7,5.11-3.4,9.52Z"/><path d="M210.06,416.1h-7.94v-4.35h21.31v4.35h-7.9v18.19h-5.47Z"/><path d="M238.22,434.29v-8.07a1.12,1.12,0,0,0-.28-.73l-9.32-13.74h6.5c2.21,3.53,5,7.82,6.07,9.95,1.15-2.11,4-6.42,6.19-9.95h6l-9.48,14a.9.9,0,0,0-.13.59v8Z"/><path d="M258.8,411.75h11.66c5.24,0,8.73,2.65,8.73,7.08,0,4.61-3.28,7.37-8.81,7.37H264.3v8.09h-5.5Zm5.5,10.2H270c2.31,0,3.78-.79,3.78-3,0-1.82-1.13-2.95-3.78-2.95H264.3Z"/><path d="M304.24,424.78H291.67v5.13h14l-.63,4.38H286.2V411.75h18.72v4.38H291.67v4.27h12.57Z"/><path d="M312.92,411.75h18.55v4.35H318.39v5.13h12.2v4.38h-12.2v8.68h-5.47Z"/><path d="M341.88,429.17l-2,5.12h-5.63l9.08-22.54h7l9.54,22.54H354l-2.1-5.12Zm8.5-4.38c-2.09-5.17-3.11-7.8-3.65-9.52h0c-.5,1.68-1.7,5.11-3.39,9.52Z"/><path d="M387.65,427.13c-1,4-4.18,7.64-11.25,7.64-8,0-11.94-5.58-11.94-11.73s4.28-11.77,12.23-11.77c6.9,0,10.35,3.84,11,7.61h-5.53c-.47-1.29-1.68-3.37-5.53-3.37-4.21,0-6.4,3.21-6.4,7.32s2,7.72,6.43,7.72c3.21,0,4.62-1.24,5.49-3.42Z"/><path d="M412.69,424.78H400.11v5.13h14l-.63,4.38H394.64V411.75h18.73v4.38H400.11v4.27h12.58Z"/><path d="M439,411.75v22.54h-5.47V411.75Z"/><path d="M448.08,434.29V411.75h6.48c6.33,9.66,8.86,13.18,10.27,15.86h.06c-.22-2.37-.18-6.59-.18-10.29v-5.57h5v22.54h-6.07c-2.13-3.36-9.34-14.56-10.68-17.14h-.07c.19,2.79.19,6,.19,10v7.15Z"/><path d="M482.22,427.53c.65,2,2.2,3.23,5.94,3.23,3.5,0,4.52-1.07,4.52-2.53s-1-2.43-5.79-3.23c-7.82-1.34-9.24-3.88-9.24-6.9,0-4.5,4.33-6.8,9.66-6.8,7.73,0,9.83,4,10.09,6.59h-5.48c-.32-1.11-1.07-2.61-4.78-2.61-2.61,0-3.93.83-3.93,2.29,0,1.3.93,2,5.16,2.71,8.56,1.54,9.9,4.13,9.9,7.39,0,3.91-3.06,7.07-10.62,7.07-7,0-10.23-3.15-10.91-7.21Z"/><path d="M505.91,411.75h11.66c5.24,0,8.72,2.65,8.72,7.08,0,4.61-3.28,7.37-8.81,7.37H511.4v8.09h-5.49ZM511.4,422h5.66c2.31,0,3.78-.79,3.78-3,0-1.82-1.12-2.95-3.78-2.95H511.4Z"/><path d="M538.77,411.75v22.54H533.3V411.75Z"/><path d="M553.33,425.6v8.69h-5.41V411.75h12.27c5.2,0,8.17,2.56,8.17,6.44a5.28,5.28,0,0,1-3.92,5.33c.92.36,3.34,1.25,3.34,5.29v1.13a18,18,0,0,0,.29,4.35h-5.62a14.63,14.63,0,0,1-.42-4.72v-.74c0-2.28-.83-3.23-4.12-3.23Zm0-4.1H559c2.65,0,3.8-1,3.8-2.86s-1.18-2.79-3.76-2.79h-5.68Z"/><path d="M594.22,424.78H581.65v5.13h14l-.63,4.38H576.18V411.75H594.9v4.38H581.65v4.27h12.57Z"/><path d="M602.9,411.75h10.18c7.6,0,11.75,4.93,11.75,10.87,0,7.22-5.3,11.67-11.86,11.67H602.9Zm5.47,18.3h3.88c4.41,0,6.79-2.49,6.79-7.28,0-4.17-2.18-6.75-6.72-6.81h-4Z"/><path d="M644.69,411.75h12.47c5.39,0,7.74,2.62,7.74,5.8a5,5,0,0,1-3.36,4.81,5.43,5.43,0,0,1,4.18,5.22c0,4.23-3.24,6.71-8.76,6.71H644.69ZM656,420.57c2.45,0,3.23-1,3.23-2.33,0-1.7-1.3-2.39-3.18-2.39h-6v4.72Zm-5.95,9.65h6.18c2.11,0,3.71-.62,3.71-2.85,0-1.8-1.23-2.73-3.61-2.73h-6.28Z"/><path d="M679.18,434.29v-8.07a1.17,1.17,0,0,0-.28-.73l-9.32-13.74h6.5c2.21,3.53,5,7.82,6.06,9.95,1.15-2.11,4-6.42,6.19-9.95h6l-9.49,14a.9.9,0,0,0-.13.59v8Z"/><path d="M711.41,411.75h10.18c7.6,0,11.75,4.93,11.75,10.87,0,7.22-5.3,11.67-11.86,11.67H711.41Zm5.47,18.3h3.88c4.41,0,6.79-2.49,6.79-7.28,0-4.17-2.18-6.75-6.72-6.81h-4Z"/><path d="M759.08,424.78H746.51v5.13h14l-.63,4.38H741V411.75h18.72v4.38H746.51v4.27h12.57Z"/><path d="M774.63,434.29l-9.18-22.54h6l4,10.73c1.5,4.06,2.14,6.24,2.53,7.68h.06c.35-1.31.67-2.26,2.78-8.09l3.84-10.32h5.85l-9.35,22.54Z"/><path d="M799.13,429.17l-2,5.12h-5.63l9.08-22.54h7l9.54,22.54h-5.91l-2.09-5.12Zm8.5-4.38c-2.1-5.17-3.12-7.8-3.66-9.52h0c-.51,1.68-1.7,5.11-3.4,9.52Z"/><path d="M823.31,434.29V411.75h6.48c6.33,9.66,8.85,13.18,10.27,15.86h.06c-.22-2.37-.19-6.59-.19-10.29v-5.57h5v22.54h-6.07c-2.12-3.36-9.33-14.56-10.67-17.14h-.07c.19,2.79.19,6,.19,10v7.15Z"/><path d="M858.74,429.17l-2,5.12h-5.62l9.07-22.54h7l9.54,22.54h-5.92l-2.09-5.12Zm8.5-4.38c-2.1-5.17-3.12-7.8-3.66-9.52h0c-.5,1.68-1.7,5.11-3.39,9.52Z"/><path d="M904.61,434.29h-4a18.6,18.6,0,0,1-.36-2.31c-1.43,1.7-3.37,2.79-7.6,2.79-7.3,0-11.37-5-11.37-11.62s4.33-11.88,12.39-11.88c7.23,0,10.35,3.93,10.95,7.21h-5.51c-.44-1.14-1.74-3.08-5.45-3.08-4.61,0-6.62,3.29-6.62,7.48,0,4.42,2.09,7.73,6.69,7.73,3.81,0,5.55-2,5.55-4.67v-.36h-5.49v-4.21h10.78Z"/><path d="M918.29,429.17l-2,5.12H910.7l9.08-22.54h7l9.54,22.54h-5.91l-2.1-5.12Zm8.5-4.38c-2.09-5.17-3.12-7.8-3.66-9.52h0c-.5,1.68-1.7,5.11-3.39,9.52Z"/><path d="M947.92,425.6v8.69H942.5V411.75h12.28c5.19,0,8.17,2.56,8.17,6.44a5.28,5.28,0,0,1-3.92,5.33c.92.36,3.34,1.25,3.34,5.29v1.13a18.57,18.57,0,0,0,.28,4.35H957a14.34,14.34,0,0,1-.42-4.72v-.74c0-2.28-.84-3.23-4.12-3.23Zm0-4.1h5.63c2.66,0,3.81-1,3.81-2.86s-1.18-2.79-3.76-2.79h-5.68Z"/><path d="M976.23,411.75v22.54h-5.47V411.75Z"/></g></g></svg>