<svg xmlns="http://www.w3.org/2000/svg" viewBox="0 0 457.21 176.02"><title>Asset 3</title><g id="a5899b4b-4ef7-462a-8c77-75d3b03f7adf" data-name="Layer 2"><g id="edf337b2-d8a0-41ee-b91d-581788c63374" data-name="Layer 1"><polygon points="104.94 141.97 53.93 141.97 53.69 141.89 43.68 138.32 42.68 137.96 42.68 36.17 44.39 36.41 54.8 37.87 56.09 38.06 56.09 133.22 100.48 133.22 100.9 134.04 103.83 139.79 104.94 141.97"/><path d="M259.21,136l-1,1.33-7.47,10.44-.9,1.25-1.22-.92a221.46,221.46,0,0,1-23.33-21c-13-13.54-22.09-26.45-27.07-38.5v54.1l-1.74-.28-10.06-1.62-1.26-.21V36l1.72.25L197,37.75l1.29.19V62.23a39,39,0,0,0,.91,8.2c1.69-8,7.55-15.82,17.35-23a101.39,101.39,0,0,1,21.24-11.71l1-.38.69.82L246.81,45l1.56,1.86-2.36.56c-.32.07-32,7.75-39.48,24.58-2.51,5.63-2,11.78,1.54,18.27,16.76,25.21,49.4,44.68,49.73,44.88Z"/><path d="M175.58,142h-54l-.25-.09-10-3.57-1-.36V42.56l-2.14-4L107,36.4h62.61l.42.81L173,43l1.14,2.25-2.52-.07L123.39,44V89.61c8.14-12.19,24.46-12.19,40.3-12.19h7.5l-1.13,2.19-3.92,7.58-.5,1L164.56,88a86.68,86.68,0,0,0-12.74-.94c-7.89,0-14.31,1.11-19.08,3.29-6.29,2.88-9.35,7.44-9.35,13.93v29h47.72l.42.82,2.93,5.75Z"/><path d="M333.74,38.07V142.21L332,142l-10-1.47-1.28-.18V88.85l-.43.83-.54,1-1.13-.26a93.73,93.73,0,0,0-18.32-2c-15.36,0-23.48,4.74-24.14,14.09v3c0,11.47,0,23.07,0,34.88v1.73l-1.72-.25-10-1.47-1.28-.18V36.16l1.72.25,10,1.47,1.28.19V54.43c0,11.57,0,23.16,0,34.83C284.75,77,303,77,319.32,77h1.42V36.16l1.72.25,10,1.47Z"/><path d="M429.76,130h-.64c-2.15,0-7.85,0-22-32.67l3.9-7.59,1.13-2.18h-2.46c-2.27,0-4.51,0-6.69,0-16.21-39.4-19.81-47.95-19.84-48l-.31-.73-.77-.15-10.56-2.16L368,35.7l2,3s.86,1.31,2.52,4.58c-10.48,52.39-36,92.17-36.23,92.57l-1,1.48,1.61.7,8.59,3.78.29.12h.31c1,0,1.21,0,5.86-9.18,2.44-4.84,6.17-12.61,10.07-22.23l0,0,0-.08c.06-.13.18-.45.37-.91l.16-.41a1.2,1.2,0,0,0,.06-.17l.1-.24.16-.41.19-.48,0-.07c3.43-7,10.75-10.6,21.76-10.6A61.4,61.4,0,0,1,395,98l0,.06,0,.11c13.34,35.2,19.17,43.8,29.72,43.8h.88l.43-.77,5-9,1.25-2.24ZM391.05,87.53c-9.44.27-17.12,1.51-22.56,5.53a231.51,231.51,0,0,0,9.4-38.28C381.82,63.69,386.24,74.69,391.05,87.53Z"/><path d="M0,0V176H457.21V0ZM445.05,163.85H12.16V12.17H445.05Z"/></g></g></svg>